<svg version="1.2" xmlns="http://www.w3.org/2000/svg" viewBox="0 0 406 246" width="406" height="246">
	<title>dream view-pdf</title>
	<style>
		.s0 { fill: #49bfbf } 
		.s1 { fill: #ffffff } 
	</style>
	<path id="Path 2" class="s0" d="m0 12.9c0-7.1 5.8-12.9 12.9-12.9h380.2c7.1 0 12.9 5.8 12.9 12.9v126.3c0 7.1-5.8 12.9-12.9 12.9h-380.2c-7.1 0-12.9-5.8-12.9-12.9z"/>
	<path id="Path 3" fill-rule="evenodd" class="s1" d="m35.5 37.1q21.8 0 42.1 23.3 6.2 12.3 6.2 23.8 0 27-27.4 39.8-8.8 3.9-19 3.9h-3.9q-5.7-0.2-5.7-4.9h-0.5q0-4.2 5.3-4.3h3.5v-0.9h0.3q-9.6-40.9-9.6-60.8h-0.4l-3.9 2.5q-4 0-4.8-5.4 0-8.6 9.6-15 3.9-2 8.2-2zm1.9 9.2h-1.3v7.4q0 25.5 9.6 64.1h0.5q28.6-7.8 28.6-33.6 0-27.7-32-37-1.9-0.9-5.4-0.9zm78.9-6.8h0.6q18.7 3.4 18.7 18.1v2.8q0 16.3-20.7 32.5v0.6q33.6 30.2 46.4 30.2 2.3 1.7 2.3 4.2 0 3.5-5.2 4.5-12.9 0-48-31.1l-6.6-3.6h-0.5q4.3 17.4 4.3 26.9 0 4-4.9 5.7-7.1 0-9-34.9-4.9-16.2-4.9-25.8v-1.4q0-14.1 6.1-14.1l3 1.5h0.9q7.4-16.1 17.5-16.1zm-12.5 41.4l-0.5 5.8q14.4 0 23.2-23.9v-5.8q0-6.8-9.3-8.2h-0.9q-9.8 0-12.5 32.1zm112.8-42.7q2.8 0 3.9 4.8 0 2.8-9.8 7.8-12 10.6-17.9 36.3v2.8q13.4-6.6 19.3-8 1.9 0 4.5 3.2v3q0 1.7-13.6 6.8-10.2 5.6-10.2 6.4v1.4q0 8.7 11.1 15.1l5.3 0.9q5.1 0 15.1-6.4h1.9q3.2 1.6 3.2 4.5v1q-9.6 10.1-21.2 10.1-16.5 0-24.1-22.4l-9.7 2q-7.1-1.1-7.1-4.7 0-3.5 4.1-5.1l3.6 0.6q8-2.3 8-3.4 0-26.4 20-48.9 10-7.8 13.6-7.8zm52.2-2.6l3.9-1.3q5.2 0 5.2 14l4.8 35.9 0.7 0.6 17.7-6.5q3.6 0 3.9 5.4 0 4.1-19.6 9.8l-0.6 0.3v0.7q0 3.2 10.2 34v0.3q0 2.9-4.8 5-4.5 0-5.9-10.8-3.6-7.7-8.7-25.6h-0.6q-20.3 4.2-20.3 7.1-11.1 24.3-16.8 24.3-3.3 0-3.9-4.2 0-3.7 8.2-14.6l2.5-5.5h-3.9l-2.9 0.7q-5.7-1.4-5.7-5.9 2.3-5.5 6.8-5.5l3.8 1.6q8.7 0 8.7-6.4 7.9-18.6 17.3-53.4zm1.4 28.2l-9.1 27.7q12.7-2.5 12.7-4.8-2.3-22.9-3.6-22.9zm83.9-49.4h0.5q3.9 2.1 3.9 4.5l-3.9 29.6q0 16.1 9.6 66.9l7.7 19.4q0 2.1-3.2 4.6h-3q-3-1-9.2-19.2-4.1-14.6-8.1-45h-0.9q-9 26.7-12.7 27.6l-2.5 0.7q-3.2 0-8-12.8h-1.1q-1.8 38.4-7.3 38.4h-0.4q-5 0-5.4-7.8 3.8-14.9 3.8-31l-4.1-41.2v-3q0-5.9 4.1-5.9 6.1 0 10.7 23.8 6.8 21.6 8.4 23.3 3.5-5.6 7.1-19.9 2.8-7.3 5.4-22.8l-0.6-0.5 0.6-2.5v-0.9q1.4-26.3 8.6-26.3zm-215 157.6l-26.3 74h-9.3l-26.3-74h9.7l16.6 47.5q1.2 3 2 5.8 0.8 2.8 1.4 5.4 0.8 2.5 1.3 4.9 0.5-2.4 1.1-5 0.7-2.6 1.5-5.4 1-2.8 2-5.9l16.5-47.3zm30.7 74h-26.6v-5.4l8.6-2v-59.1l-8.6-2.1v-5.4h26.6v5.4l-8.7 2.1v59.1l8.7 2zm55.3 0h-41.1v-73.9h41.1v8.1h-31.8v23.1h30v8.1h-30v26.4h31.8zm100.8-73.9l-19.6 73.9h-9.4l-14.4-48.4q-0.6-2.2-1.2-4.5-0.6-2.3-1.1-4.3-0.5-2.1-1-3.6-0.3-1.5-0.4-2.2-0.1 0.7-0.4 2.2-0.2 1.5-0.7 3.6-0.5 2-1.1 4.4-0.6 2.3-1.3 4.7l-13.9 48.1h-9.4l-19.5-73.9h9.7l11.5 45.1q0.6 2.4 1.1 4.8 0.5 2.3 0.9 4.6 0.6 2.1 0.9 4.2 0.3 2.1 0.6 4 0.3-2 0.6-4.2 0.4-2.2 0.9-4.5 0.5-2.3 1.2-4.7 0.6-2.4 1.2-4.7l13-44.6h9.6l13.5 44.9q0.7 2.4 1.3 4.9 0.6 2.4 1.2 4.7 0.5 2.2 0.8 4.4 0.4 2.1 0.7 3.8 0.3-2.5 0.8-5.3 0.5-2.9 1.3-6 0.7-3.2 1.5-6.4l11.4-45z"/>
</svg>